<svg width="1280.000000" height="713.000000" viewBox="0 0 1280 713" fill="none" xmlns="http://www.w3.org/2000/svg" xmlns:xlink="http://www.w3.org/1999/xlink">
	<desc>
			Created with Pixso.
	</desc>
	<defs/>
	<path id="Subtract" d="M30 0L1250 0C1266.57 0 1280 13.4297 1280 30L1280 683C1280 699.57 1266.57 713 1250 713L909 713C892.43 713 879 699.57 879 683L879 663C879 646.43 865.57 633 849 633L431 633C414.43 633 401 646.43 401 663L401 683C401 699.57 387.57 713 371 713L30 713C13.4297 713 0 699.57 0 683L0 30C0 13.4297 13.4297 0 30 0Z" clip-rule="evenodd" fill="#DCDCDC" fill-opacity="0.740000" fill-rule="evenodd"/>
</svg>
